<?xml version="1.0" standalone="no"?>
<!DOCTYPE svg PUBLIC "-//W3C//DTD SVG 20010904//EN"
 "http://www.w3.org/TR/2001/REC-SVG-20010904/DTD/svg10.dtd">
<svg version="1.0" xmlns="http://www.w3.org/2000/svg"
 width="512.000000pt" height="512.000000pt" viewBox="0 0 512.000000 512.000000"
 preserveAspectRatio="xMidYMid meet">
<metadata>
Created by potrace 1.11, written by Peter Selinger 2001-2013
</metadata>
<g transform="translate(0.000000,512.000000) scale(0.100000,-0.100000)"
fill="#000000" stroke="none">
<path d="M1285 5103 c-275 -58 -486 -282 -530 -563 -19 -113 8 -313 50 -377 8
-12 15 -28 15 -35 0 -7 25 -46 55 -86 30 -40 55 -74 55 -76 0 -1 -42 -2 -92
-2 l-93 1 -1 -82 -1 -83 26 0 c37 -1 380 -1 418 -1 30 1 37 8 45 46 1 6 21 84
44 175 23 91 40 167 38 169 -7 8 -146 41 -153 36 -5 -2 -12 -22 -17 -42 -4
-21 -8 -40 -9 -43 0 -3 -7 -30 -14 -60 l-14 -54 -51 55 c-269 289 -142 742
239 855 55 16 129 18 950 18 l890 1 2 83 3 82 -893 -1 c-748 -1 -903 -3 -962
-16z"/>
<path d="M3805 4369 c-10 -14 -7 -461 2 -469 6 -5 342 -89 376 -94 12 -1 50
145 40 154 -4 4 -40 14 -80 23 -124 29 -121 26 -65 79 62 59 160 113 241 131
273 63 537 -95 617 -368 16 -55 17 -132 18 -950 l1 -890 80 0 80 0 2 884 c3
989 4 969 -67 1116 -165 341 -557 481 -905 320 -38 -17 -93 -51 -122 -73 -29
-23 -54 -42 -55 -42 -2 0 -3 42 -3 93 l0 92 -77 2 c-43 1 -80 -2 -83 -8z"/>
<path d="M2230 3985 l0 -144 -62 -20 c-78 -24 -124 -43 -211 -87 l-69 -35 -99
98 c-55 54 -101 99 -103 101 -7 6 -468 -460 -462 -466 3 -4 49 -50 102 -103
l95 -96 -39 -79 c-22 -43 -55 -121 -72 -171 l-33 -93 -143 0 -144 0 0 -330 0
-329 145 -3 146 -3 29 -87 c16 -48 48 -124 71 -169 l41 -82 -79 -77 c-43 -43
-88 -89 -101 -103 l-24 -25 231 -231 c127 -127 233 -231 235 -231 2 0 48 45
103 100 l99 101 85 -42 c46 -23 122 -55 169 -70 l85 -27 3 -146 3 -146 329 0
329 0 3 145 3 146 89 30 c49 16 126 48 170 70 l80 41 99 -101 c98 -99 100
-101 120 -84 12 10 117 114 235 232 l214 214 -102 102 -101 101 39 80 c22 43
54 121 72 172 l33 92 143 0 144 0 0 330 0 329 -146 3 -146 3 -27 85 c-16 47
-47 123 -70 169 l-41 84 97 99 c54 55 97 103 96 108 -3 12 -441 449 -452 452
-6 2 -55 -41 -109 -95 l-99 -98 -89 44 c-49 24 -126 57 -171 72 l-83 27 0 144
0 144 -330 0 -330 0 0 -145z"/>
<path d="M0 2251 c1 -991 -1 -969 71 -1118 114 -237 349 -385 609 -384 165 1
298 46 418 140 28 23 53 41 55 41 2 0 3 -41 2 -90 -2 -104 -6 -99 103 -98 l62
1 1 71 c1 187 -2 400 -6 404 -5 5 -331 89 -365 94 -22 3 -25 -2 -41 -72 -10
-41 -15 -78 -11 -81 4 -4 49 -17 100 -29 l94 -23 -41 -41 c-126 -129 -325
-182 -501 -135 -172 46 -306 174 -361 346 -21 68 -22 71 -23 963 l-1 895 -83
1 -82 1 0 -886z"/>
<path d="M3946 1320 l-50 -5 -43 -175 c-23 -96 -44 -184 -45 -194 -3 -16 9
-22 71 -38 58 -14 76 -15 82 -6 4 7 18 53 30 102 l22 90 52 -57 c99 -109 146
-233 140 -372 -9 -226 -150 -410 -366 -476 l-74 -23 -885 0 c-607 0 -887 -3
-892 -10 -4 -6 -8 -44 -8 -84 l0 -72 893 0 c978 1 959 0 1095 61 84 38 181
107 228 165 22 25 44 51 49 58 36 43 90 161 110 240 21 86 21 221 1 309 -21
89 -73 199 -124 264 -23 29 -42 54 -42 56 0 2 42 3 93 3 l92 -1 3 83 3 82 -68
0 c-37 1 -124 2 -193 3 -69 1 -147 0 -174 -3z"/>
</g>
</svg>
